# Blender v2.79 (sub 0) OBJ File: ''
# www.blender.org
mtllib star.mtl
o Cylinder
v 0.382438 -0.298786 -0.472525
v 0.382438 0.201214 -0.472525
v 0.614425 -0.298786 0.241457
v 0.614425 0.201214 0.241457
v 0.007075 -0.298786 0.682723
v 0.007075 0.201214 0.682723
v -0.600275 -0.298786 0.241457
v -0.600275 0.201214 0.241457
v -0.368287 -0.298786 -0.472525
v -0.368287 0.201214 -0.472525
v -0.112104 -0.298786 -0.802415
v 0.126254 -0.298786 -0.802415
v -0.057424 -0.298786 -0.849463
v 0.007075 -0.298786 -0.865983
v 0.071574 -0.298786 -0.849463
v 0.126254 0.201214 -0.802415
v -0.112104 0.201214 -0.802415
v 0.071574 0.201214 -0.849463
v 0.007075 0.201214 -0.865983
v -0.057424 0.201214 -0.849463
v 0.775347 -0.298786 -0.330821
v 0.849004 -0.298786 -0.104130
v 0.836989 -0.298786 -0.293356
v 0.872633 -0.298786 -0.237119
v 0.876852 -0.298786 -0.170672
v 0.849004 0.201214 -0.104130
v 0.775347 0.201214 -0.330821
v 0.876852 0.201214 -0.170672
v 0.872633 0.201214 -0.237119
v 0.836989 0.201214 -0.293356
v 0.601072 -0.298786 0.658925
v 0.408237 -0.298786 0.799028
v 0.584489 -0.298786 0.729127
v 0.542019 -0.298786 0.780405
v 0.480127 -0.298786 0.804951
v 0.408237 0.201214 0.799028
v 0.601072 0.201214 0.658925
v 0.480127 0.201214 0.804951
v 0.542019 0.201214 0.780405
v 0.584489 0.201214 0.729127
v -0.394086 -0.298786 0.799028
v -0.586922 -0.298786 0.658925
v -0.465977 -0.298786 0.804950
v -0.527869 -0.298786 0.780404
v -0.570339 -0.298786 0.729127
v -0.586922 0.201214 0.658925
v -0.394086 0.201214 0.799028
v -0.570339 0.201214 0.729127
v -0.527869 0.201214 0.780404
v -0.465977 0.201214 0.804950
v -0.834853 -0.298786 -0.104130
v -0.761197 -0.298786 -0.330821
v -0.862701 -0.298786 -0.170672
v -0.858482 -0.298786 -0.237119
v -0.822838 -0.298786 -0.293356
v -0.761197 0.201214 -0.330821
v -0.834853 0.201214 -0.104130
v -0.822838 0.201214 -0.293356
v -0.858482 0.201214 -0.237119
v -0.862701 0.201214 -0.170672
vn -0.7898 0.0000 -0.6133
vn 0.8274 0.0000 0.5616
vn 0.9995 0.0000 0.0320
vn -0.2785 0.0000 0.9604
vn 0.2785 0.0000 0.9604
vn -0.9995 0.0000 0.0320
vn -0.8274 -0.0000 0.5616
vn -0.3393 0.0000 -0.9407
vn 0.3393 0.0000 -0.9407
vn 0.0000 1.0000 -0.0000
vn 0.7898 0.0000 -0.6133
vn -0.6522 0.0000 -0.7580
vn -0.2481 -0.0000 -0.9687
vn 0.2481 0.0000 -0.9687
vn 0.6522 0.0000 -0.7580
vn 0.9225 0.0000 0.3861
vn 0.9980 0.0000 -0.0634
vn 0.8446 0.0000 -0.5353
vn 0.5194 0.0000 -0.8545
vn -0.0821 0.0000 0.9966
vn 0.3687 0.0000 0.9296
vn 0.7701 0.0000 0.6379
vn 0.9732 0.0000 0.2299
vn -0.9732 0.0000 0.2299
vn -0.7701 -0.0000 0.6379
vn -0.3687 0.0000 0.9296
vn 0.0821 0.0000 0.9966
vn -0.5194 0.0000 -0.8545
vn -0.8446 -0.0000 -0.5353
vn -0.9980 0.0000 -0.0634
vn -0.9225 0.0000 0.3861
vn 0.0000 -1.0000 0.0000
usemtl None
s off
f 9//1 10//1 17//1 11//1
f 22//2 26//2 4//2 3//2
f 3//3 4//3 37//3 31//3
f 32//4 36//4 6//4 5//4
f 5//5 6//5 47//5 41//5
f 42//6 46//6 8//6 7//6
f 7//7 8//7 57//7 51//7
f 52//8 56//8 10//8 9//8
f 1//9 2//9 27//9 21//9
f 2//10 16//10 18//10 19//10 20//10 17//10 10//10 56//10 58//10 59//10 60//10 57//10 8//10 46//10 48//10 49//10 50//10 47//10 6//10 36//10 38//10 39//10 40//10 37//10 4//10 26//10 28//10 29//10 30//10 27//10
f 12//11 16//11 2//11 1//11
f 11//12 17//12 20//12 13//12
f 13//13 20//13 19//13 14//13
f 14//14 19//14 18//14 15//14
f 15//15 18//15 16//15 12//15
f 26//16 22//16 25//16 28//16
f 28//17 25//17 24//17 29//17
f 29//18 24//18 23//18 30//18
f 30//19 23//19 21//19 27//19
f 36//20 32//20 35//20 38//20
f 38//21 35//21 34//21 39//21
f 39//22 34//22 33//22 40//22
f 40//23 33//23 31//23 37//23
f 46//24 42//24 45//24 48//24
f 48//25 45//25 44//25 49//25
f 49//26 44//26 43//26 50//26
f 50//27 43//27 41//27 47//27
f 56//28 52//28 55//28 58//28
f 58//29 55//29 54//29 59//29
f 59//30 54//30 53//30 60//30
f 60//31 53//31 51//31 57//31
f 11//32 13//32 14//32 15//32 12//32 1//32 21//32 23//32 24//32 25//32 22//32 3//32 31//32 33//32 34//32 35//32 32//32 5//32 41//32 43//32 44//32 45//32 42//32 7//32 51//32 53//32 54//32 55//32 52//32 9//32
